<svg xmlns="http://www.w3.org/2000/svg" width="20" height="20" viewBox="0 0 20 20" fill="none">
  <path d="M19.76 10.2271C19.76 9.49722 19.7006 8.79305 19.5918 8.10547H10.0918V11.8574H15.572C15.3259 13.0967 14.6177 14.1784 13.5677 14.8871V17.3419H16.8212C18.7106 15.615 19.76 13.1493 19.76 10.2271Z" fill="#4285F4" />
  <path d="M10.0918 19.9998C12.8424 19.9998 15.1647 19.1044 16.8259 17.3421L13.5724 14.8874C12.6818 15.4968 11.5018 15.8445 10.0971 15.8445C7.45647 15.8445 5.22529 14.1125 4.42941 11.8041H1.07529V14.3361C2.77059 17.7551 6.26765 19.9998 10.0918 19.9998Z" fill="#34A853" />
  <path d="M4.42412 11.8043C4.04412 10.5928 4.04412 9.28812 4.42412 8.07658V5.54463H1.07001C-0.361764 8.38818 -0.361764 11.4928 1.07001 14.3363L4.42412 11.8043Z" fill="#FBBC04" />
  <path d="M10.0918 4.15548C11.5335 4.13318 12.9224 4.66371 13.9671 5.63195L16.8599 2.74025C15.0388 0.990655 12.6076 -0.0246468 10.0918 0.000508793C6.26765 0.000508793 2.77059 2.24518 1.07529 5.66424L4.42941 8.19619C5.2206 5.88248 7.45647 4.15548 10.0918 4.15548Z" fill="#EA4335" />
</svg> 