<svg xmlns="http://www.w3.org/2000/svg" width="80" height="80" viewBox="0 0 80 80" fill="none">
  <rect width="80" height="80" rx="10" fill="#F5F0FF"/>
  <path d="M56 40C56 35.582 52.418 32 48 32C45.764 32 43.723 32.898 42.223 34.348L40 36.667L37.776 34.348C36.277 32.898 34.236 32 32 32C27.582 32 24 35.582 24 40C24 44.418 27.582 48 32 48C34.236 48 36.277 47.102 37.777 45.652L40 43.333L42.223 45.652C43.723 47.102 45.764 48 48 48C52.418 48 56 44.418 56 40Z" stroke="#6C5DD3" stroke-width="4" stroke-linecap="round" stroke-linejoin="round"/>
</svg> 