<svg xmlns="http://www.w3.org/2000/svg" width="60" height="60" viewBox="0 0 60 60" fill="none">
  <rect width="60" height="60" rx="10" fill="#F3F4F6"/>
  <rect x="15" y="20" width="30" height="25" rx="4" fill="#6B7280" opacity="0.2"/>
  <path d="M15 25C15 22.7909 16.7909 21 19 21H41C43.2091 21 45 22.7909 45 25V27H15V25Z" fill="#6B7280"/>
  <circle cx="21" cy="24" r="1.5" fill="white"/>
  <circle cx="39" cy="24" r="1.5" fill="white"/>
  <path d="M20 32H24" stroke="#6B7280" stroke-width="2" stroke-linecap="round"/>
  <path d="M28 32H32" stroke="#6B7280" stroke-width="2" stroke-linecap="round"/>
  <path d="M36 32H40" stroke="#6B7280" stroke-width="2" stroke-linecap="round"/>
  <path d="M20 36H24" stroke="#6B7280" stroke-width="2" stroke-linecap="round"/>
  <path d="M28 36H32" stroke="#6B7280" stroke-width="2" stroke-linecap="round"/>
  <path d="M36 36H40" stroke="#6B7280" stroke-width="2" stroke-linecap="round"/>
  <path d="M30 15L30 19" stroke="#6B7280" stroke-width="2" stroke-linecap="round"/>
  <path d="M22 15L22 19" stroke="#6B7280" stroke-width="2" stroke-linecap="round"/>
  <path d="M38 15L38 19" stroke="#6B7280" stroke-width="2" stroke-linecap="round"/>
  <circle cx="30" cy="15" r="5" fill="#3B82F6"/>
  <path d="M30 13V17" stroke="white" stroke-width="1.5" stroke-linecap="round"/>
  <path d="M28 15H32" stroke="white" stroke-width="1.5" stroke-linecap="round"/>
</svg> 