<svg xmlns="http://www.w3.org/2000/svg" width="60" height="60" viewBox="0 0 60 60" fill="none">
  <rect width="60" height="60" rx="10" fill="#EFF6FF"/>
  <path d="M15 20C15 18.8954 15.8954 18 17 18H43C44.1046 18 45 18.8954 45 20V40C45 41.1046 44.1046 42 43 42H17C15.8954 42 15 41.1046 15 40V20Z" fill="#3B82F6" opacity="0.2"/>
  <path d="M22 25H38M22 30H38M22 35H32" stroke="#3B82F6" stroke-width="2" stroke-linecap="round"/>
  <path d="M37 40C37 40 43 37 43 33V24L37 27L31 24L25 27L19 24V33C19 37 25 40 25 40H37Z" fill="#3B82F6" opacity="0.6"/>
  <path d="M31 24V40" stroke="#3B82F6" stroke-width="2" stroke-linecap="round"/>
  <circle cx="37" cy="22" r="4" fill="#EF4444"/>
  <path d="M37 21V23" stroke="white" stroke-width="2" stroke-linecap="round"/>
  <path d="M37 19V19.5" stroke="white" stroke-width="2" stroke-linecap="round"/>
</svg> 